# xmcd
#
# Track frame offsets: 
#        150
#        4961
#        25282
#        49590
#        69793
#        89561
#        106279
#        121403
#        135387
#        154576
#        189115
#        217576
#        240903
#        261027
#        286072
#
# Disc length: 4236 seconds
#
# Revision: 1
# Processed by: cddbd v1.5.2PL0 Copyright (c) Steve Scherf et al.
# Submitted via: ExactAudioCopy v1.0b3
#
DISCID=b4108a0f
DTITLE=Various Artist - Muzyka Swiata prezentuje Marcin Kydrynski CD2
DYEAR=1900
DGENRE=Ethnic
TTITLE0=Tristan Caldwell Band - Siesta Theme
TTITLE1=Sara Tavares - Balanceo
TTITLE2=Davy Sicard - Konmsi
TTITLE3=Buika - Mi Ninha Lola
TTITLE4=Paulo Flores - Poema Do Semba
TTITLE5=Rosa Passos and Henri Salvador - Que Reste-t-il De Nos Amours
TTITLE6=Ibrahim Ferrer - Si te Contara
TTITLE7=No Smoking Orchestra - O Chaveja
TTITLE8=Sevara Nazarkhan - Yor Yor 
TTITLE9=Dhafer Youssef - Aya (1984)
TTITLE10=Yungchen Lhamo - Fade Away
TTITLE11=Alvin Batiste - Everloving Star
TTITLE12=Anna Maria Jopek - On wszystko o nas wie
TTITLE13=Ayub Ogada - Kothbiro
TTITLE14=Michel Camilo - Caribe
EXTD=
EXTT0=
EXTT1=
EXTT2=
EXTT3=
EXTT4=
EXTT5=
EXTT6=
EXTT7=
EXTT8=
EXTT9=
EXTT10=
EXTT11=
EXTT12=
EXTT13=
EXTT14=
PLAYORDER=
